HIERARCHY
ROOT Hips
{
	OFFSET 0.00000 0.00000 0.00000
	CHANNELS 6 Xposition Yposition Zposition Zrotation Yrotation Xrotation 
	JOINT LHipJoint
	{
		OFFSET 0 0 0
		CHANNELS 3 Zrotation Yrotation Xrotation
		JOINT LeftHip
		{
			OFFSET 1.40252 -1.71424 0.59123
			CHANNELS 3 Zrotation Yrotation Xrotation
			JOINT LeftKnee
			{
				OFFSET 2.50071 -6.87065 0.00000
				CHANNELS 3 Zrotation Yrotation Xrotation
				JOINT LeftAnkle
				{
					OFFSET 2.50834 -6.89162 0.00000
					CHANNELS 3 Zrotation Yrotation Xrotation
					JOINT LeftToe
					{
						OFFSET 0.21528 -0.59149 1.64448
						CHANNELS 3 Zrotation Yrotation Xrotation
						End Site
						{
							OFFSET 0.00000 -0.00000 0.87921
						}
					}
				}
			}
		}
	}
	JOINT RHipJoint
	{
		OFFSET 0 0 0
		CHANNELS 3 Zrotation Yrotation Xrotation
		JOINT RightHip
		{
			OFFSET -1.53651 -1.71424 0.59123
			CHANNELS 3 Zrotation Yrotation Xrotation
			JOINT RightKnee
			{
				OFFSET -2.45783 -6.75285 0.00000
				CHANNELS 3 Zrotation Yrotation Xrotation
				JOINT RightAnkle
				{
					OFFSET -2.51921 -6.92147 0.00000
					CHANNELS 3 Zrotation Yrotation Xrotation
					JOINT RightToe
					{
						OFFSET -0.21777 -0.59831 1.59676
						CHANNELS 3 Zrotation Yrotation Xrotation
						End Site
						{
							OFFSET -0.00000 -0.00000 0.85779
						}
					}
				}
			}
		}
	}
	JOINT lowerback
	{
		OFFSET 0 0 0
		CHANNELS 3 Zrotation Yrotation Xrotation
		JOINT Chest
		{
			OFFSET 0.02212 2.07622 0.03776
			CHANNELS 3 Zrotation Yrotation Xrotation
			JOINT Chest2
			{
				OFFSET -0.00949 2.08009 -0.00123
				CHANNELS 3 Zrotation Yrotation Xrotation
				JOINT lowerneck
				{
					OFFSET 0 0 0
					CHANNELS 3 Zrotation Yrotation Xrotation
					JOINT Neck
					{
						OFFSET 0.00288 1.67184 0.11155
						CHANNELS 3 Zrotation Yrotation Xrotation
						JOINT Head
						{
							OFFSET -0.02412 1.66997 -0.22040
							CHANNELS 3 Zrotation Yrotation Xrotation
							End Site
							{
								OFFSET -0.01026 1.69043 -0.08683
							}
						}
					}
				}
				JOINT LeftCollar
				{
					OFFSET 0 0 0
					CHANNELS 3 Zrotation Yrotation Xrotation
					JOINT LeftShoulder
					{
						OFFSET 3.97941 0.74048 0.81462
CHANNELS 3 Zrotation Xrotation Yrotation
						JOINT LeftElbow
						{
OFFSET 0 -5.018340 -0.000000
CHANNELS 3 Zrotation Xrotation Yrotation
							JOINT LeftWrist
							{
OFFSET 0 -3.486900 0.000000
CHANNELS 3 Zrotation Xrotation Yrotation
								JOINT lhand
								{
									OFFSET 0 0 0
CHANNELS 3 Zrotation Xrotation Yrotation
									JOINT LFingers
									{
OFFSET 0 -0.767990 0.000000
CHANNELS 3 Zrotation Xrotation Yrotation
										End Site
										{
OFFSET 0 -0.619170 0.000000
										}
									}
								}
								JOINT LThumb
								{
OFFSET 0 0.000000 0.000000
CHANNELS 3 Zrotation Xrotation Yrotation
									End Site
									{
OFFSET 0 -0.628630 0.628630
									}
								}
							}
						}
					}
				}
				JOINT RightCollar
				{
					OFFSET 0 0 0
					CHANNELS 3 Zrotation Yrotation Xrotation
					JOINT RightShoulder
					{
						OFFSET -3.88702 1.02123 0.44091
CHANNELS 3 Zrotation Xrotation Yrotation
						JOINT RightElbow
						{
OFFSET 0 -4.701640 0.000000
CHANNELS 3 Zrotation Xrotation Yrotation
							JOINT RightWrist
							{
OFFSET 0 -3.499110 0.000000
CHANNELS 3 Zrotation Xrotation Yrotation
								JOINT rhand
								{
									OFFSET 0 0 0
CHANNELS 3 Zrotation Xrotation Yrotation
									JOINT RFingers
									{
OFFSET 0 -0.739330 0.000000
CHANNELS 3 Zrotation Xrotation Yrotation
										End Site
										{
OFFSET 0 -0.596070 0.000000
										}
									}
								}
								JOINT RThumb
								{
OFFSET 0 0.000000 0.000000
CHANNELS 3 Zrotation Xrotation Yrotation
									End Site
									{
OFFSET 0 -0.605170 0.605170
									}
								}
							}
						}
					}
				}
			}
		}
	}
}
MOTION
Frames: 9
Frame Time: 0.008333333333333333
-13.157700 17.528600 -2.505500 -15.187500 85.129400 -7.747000 0.000000 0.000000 0.000000 -19.423600 1.170800 -10.169700 0.254600 3.246400 8.965600 0.461000 4.121600 -15.002100 0.040100 1.292600 3.554300 0.000000 0.000000 0.000000 15.580700 3.058900 -13.067300 -1.528000 -7.804600 22.122300 -1.014600 -5.524300 -21.788100 -0.356000 3.833500 -10.608600 -2.966800 3.041900 -4.959400 -0.548000 4.249400 0.152900 1.396600 2.080800 2.759800 -11.151000 -12.681800 -2.864200 1.262500 -16.228300 15.984500 0.979100 -8.364800 6.378100 -0.000000 -0.000000 0.000000 -2.230200 -0.693300 -10.365900 15.137400 -24.337100 3.282300 20.550800 9.771700 -42.648900 0.000000 0.000000 0.000000 -7.125000 0.000000 0.000000 -27.815400 72.881500 18.787200 -0.000000 -0.000000 0.000000 6.096600 4.168800 21.897100 -18.333500 -28.582100 -4.707700 -26.441800 22.902100 -8.675100 0.000000 0.000000 0.000000 7.125000 0.000000 -0.000000 0.326800 20.309300 0.193100
-13.191588 17.500998 -2.613644 -14.130606 85.493235 -6.894394 0.000000 0.000000 0.000000 -20.015434 2.319582 -10.270425 0.228897 3.079165 8.499228 0.470207 2.747947 -14.250595 0.020646 0.922180 2.534743 0.000000 0.000000 0.000000 14.940773 1.532648 -16.105572 -2.159213 -9.187664 26.385918 -1.024560 -5.387827 -21.790499 -0.235869 3.125034 -8.627084 -1.010783 2.738619 -4.024657 -1.517993 3.746089 0.112941 -0.766330 1.869176 2.405530 -7.949960 -12.488689 1.618485 2.062649 -16.712566 5.298448 1.588913 -8.437014 2.317706 0.000000 0.000000 0.000000 0.130846 -1.531228 -14.192644 15.440008 -24.755454 3.408058 20.529248 8.136332 -42.412757 0.000000 0.000000 0.000000 -7.125000 0.000000 0.000000 -27.365274 72.679067 18.353526 0.000000 0.000000 0.000000 7.731837 3.686287 18.067910 -17.462784 -27.463264 -4.298948 -25.951209 25.465333 -6.335160 0.000000 0.000000 0.000000 7.125000 0.000000 0.000000 0.582127 22.940812 0.308878
-13.315914 17.536756 -2.669392 -26.168744 86.244193 -17.959369 0.000000 0.000000 0.000000 -19.417971 1.963674 -12.767807 0.312758 3.595432 9.941128 0.485443 1.874535 -13.976111 0.001622 -0.258134 -0.709141 0.000000 0.000000 0.000000 15.541065 2.754894 -19.783191 -2.856402 -10.458899 30.475969 -0.962753 -7.019742 -22.348553 -0.126299 2.290805 -6.310089 -0.120278 2.051761 -3.819914 -1.033940 2.768516 -0.053109 -0.837648 1.387566 2.130440 -8.088238 -12.420237 1.166140 3.004391 -16.644775 4.144430 1.913885 -8.381719 2.117702 0.000000 0.000000 0.000000 0.378625 -3.251459 -16.854406 15.500331 -24.838555 3.433404 21.296078 8.315743 -42.789630 0.000000 0.000000 0.000000 -7.125000 0.000000 0.000000 -27.185862 73.263512 18.563940 0.000000 0.000000 0.000000 7.228675 2.970372 15.691660 -16.894801 -26.718812 -4.039897 -26.549951 26.800102 -4.539176 0.000000 0.000000 0.000000 7.125000 0.000000 0.000000 0.078938 24.908078 0.038314
-13.367420 17.530796 -2.682389 -38.527635 86.657526 -30.911946 0.000000 0.000000 0.000000 -18.864872 2.245580 -12.553400 0.324982 3.664005 10.133289 0.481898 1.305354 -13.651441 0.003045 -0.355129 -0.975768 0.000000 0.000000 0.000000 16.153423 3.651614 -20.473440 -3.390866 -11.301859 33.305550 -1.098674 -5.742620 -22.665944 -0.175714 2.690186 -7.417984 0.647278 1.714544 -2.992310 -0.677212 2.277147 0.201572 -0.950793 1.147411 1.935791 -8.046257 -12.420879 0.847541 3.579013 -16.650723 3.716472 2.078616 -8.372479 2.086485 0.000000 0.000000 0.000000 0.879137 -4.604300 -19.785240 15.663777 -25.062607 3.502338 21.060099 7.959212 -42.779485 0.000000 0.000000 0.000000 -7.125000 0.000000 0.000000 -27.457448 73.170501 18.702879 0.000000 0.000000 0.000000 7.047867 3.171453 13.987860 -16.700379 -26.461120 -3.952941 -29.631100 28.037981 -5.006742 0.000000 0.000000 0.000000 7.125000 0.000000 0.000000 -2.202244 24.224235 -1.106475
-13.396773 17.533654 -2.666636 -47.808924 87.061425 -40.411288 0.000000 0.000000 0.000000 -18.649414 2.006874 -12.372059 0.323761 3.657334 10.114442 0.472419 1.188249 -13.468968 0.012065 -0.708649 -1.947383 0.000000 0.000000 0.000000 16.503193 5.309481 -20.147306 -3.683339 -11.726592 34.771671 -1.254740 -3.205718 -22.533118 -0.510576 4.580060 -12.714572 1.314906 1.427075 -2.804788 -0.586875 1.869552 0.241172 -1.255719 0.949929 1.880753 -7.596320 -12.278997 0.576983 3.622123 -16.447323 3.475350 2.023519 -8.261130 2.002022 0.000000 0.000000 0.000000 1.580169 -5.180334 -23.329571 16.493441 -26.185024 3.861168 21.344067 6.281459 -42.709831 0.000000 0.000000 0.000000 -7.125000 0.000000 0.000000 -26.961166 73.214707 18.376872 0.000000 0.000000 0.000000 7.074823 3.686257 13.443482 -16.756990 -26.536280 -3.978133 -33.337761 27.321622 -6.344042 0.000000 0.000000 0.000000 7.125000 0.000000 0.000000 -4.828075 22.408138 -2.632177
-13.424634 17.539311 -2.615880 -57.320811 87.557021 -49.594487 0.000000 0.000000 0.000000 -18.570310 2.145415 -13.041765 0.330818 3.696346 10.223869 0.468500 0.408414 -13.085472 0.029306 -1.105658 -3.039610 0.000000 0.000000 0.000000 16.604922 6.642380 -19.865976 -3.945547 -12.087557 36.042430 -1.410656 -3.171396 -23.773794 -0.421538 4.166878 -11.546602 1.986545 1.238236 -3.260877 -0.652963 1.589840 -0.021005 -1.706127 0.815575 1.878663 -7.352175 -12.170144 0.291836 3.551265 -16.285930 3.773454 1.942132 -8.177577 2.110624 0.000000 0.000000 0.000000 2.192674 -5.372922 -26.066228 17.469673 -27.472548 4.301880 20.915524 4.519085 -43.179714 0.000000 0.000000 0.000000 -7.125000 0.000000 0.000000 -28.482155 73.445564 19.594389 0.000000 0.000000 0.000000 7.190216 4.384968 13.693771 -17.098169 -26.986908 -4.131812 -32.807796 25.787696 -7.023446 0.000000 0.000000 0.000000 7.125000 0.000000 0.000000 -4.380339 21.650658 -2.461421
-13.442147 17.539800 -2.528899 -65.620118 88.020678 -57.690205 0.000000 0.000000 0.000000 -18.494319 2.121133 -13.400058 0.331644 3.701382 10.237898 0.461430 -0.087722 -12.804153 0.035593 -1.217022 -3.346077 0.000000 0.000000 0.000000 16.606403 7.786838 -18.236138 -3.737968 -11.803042 35.039139 -1.342546 -2.560740 -22.943711 -0.292326 3.476325 -9.607902 2.521196 1.139710 -3.847894 -0.760641 1.429986 -0.281169 -2.116537 0.740182 1.949273 -7.278983 -12.134494 0.111528 3.522834 -16.230045 4.066281 1.902432 -8.149009 2.226674 0.000000 0.000000 0.000000 2.433814 -5.111754 -27.734352 18.312445 -28.555432 4.697621 20.750518 3.284332 -43.144083 0.000000 0.000000 0.000000 -7.125000 0.000000 0.000000 -28.607319 73.357197 19.631217 0.000000 0.000000 0.000000 7.292897 4.912946 14.595287 -17.243186 -27.177330 -4.197836 -31.389599 23.475731 -8.410861 0.000000 0.000000 0.000000 7.125000 0.000000 0.000000 -3.235405 20.160637 -1.925145
-13.456519 17.544047 -2.402063 -68.426938 88.273008 -60.008024 0.000000 0.000000 0.000000 -18.224444 2.040512 -13.980369 0.326064 3.670209 10.150680 0.447212 -0.159748 -12.579841 0.059779 -1.576361 -4.336308 0.000000 0.000000 0.000000 17.054202 8.214121 -15.626845 -2.762861 -10.296403 29.946190 -1.240601 -3.318819 -22.472575 -0.404821 4.083339 -11.311364 2.955306 1.243656 -4.916803 -0.772891 1.525494 -0.567464 -2.349076 0.794727 2.270456 -7.629760 -12.163566 0.028937 3.796940 -16.276005 4.335777 2.024017 -8.173420 2.396297 0.000000 0.000000 0.000000 2.057353 -4.925311 -28.379402 18.493548 -28.784514 4.784507 20.469931 2.876166 -43.070984 0.000000 0.000000 0.000000 -7.125000 0.000000 0.000000 -28.792870 73.197003 19.667268 0.000000 0.000000 0.000000 7.280140 5.226935 15.375907 -17.259250 -27.198218 -4.205162 -31.257171 22.806154 -8.838868 0.000000 0.000000 0.000000 7.125000 0.000000 0.000000 -3.102981 19.677839 -1.879565
-13.500999 17.556892 -2.225543 -66.120093 88.012710 -57.569340 0.000000 0.000000 0.000000 -17.226605 1.322105 -14.094222 0.331931 3.702734 10.241943 0.423058 0.778177 -12.593222 0.071937 -1.730560 -4.761563 0.000000 0.000000 0.000000 18.480926 7.308146 -13.036836 -1.872898 -8.595285 24.537782 -1.224590 -4.471389 -22.952964 -0.307228 3.563134 -9.850758 3.435393 1.436470 -5.299943 -0.574928 1.744293 -0.774547 -2.392707 0.906311 2.293250 -7.542457 -12.059185 -0.237182 4.046532 -16.138655 4.633182 2.068213 -8.097675 2.552610 0.000000 0.000000 0.000000 1.285004 -4.405395 -28.213394 18.176160 -28.382199 4.632656 20.430106 3.162594 -42.916982 0.000000 0.000000 0.000000 -7.125000 0.000000 0.000000 -28.516414 73.057697 19.386892 0.000000 0.000000 0.000000 7.172045 5.020842 15.885924 -17.057018 -26.932928 -4.113173 -31.581639 23.589599 -8.945613 0.000000 0.000000 0.000000 7.125000 0.000000 0.000000 -3.323510 19.520110 -2.025387
